# xmcd CD database file generated by Grip 2.94
# 
# Track frame offsets:
#       180
#       16058
#       31521
#       49755
#       61240
#       77955
#       89991
#       102734
#       115407
#       126767
#       141072
#       150832
#       156200
#       166265
# 
# Disc length: 2337 seconds
# 
# Revision: 3
# Processed by: cddbd v1.4b41PL1 Copyright (c) Steve Scherf et al.
# Submitted via: Grip 2.94
# 
DISCID=ae091f0e
DTITLE=Simon Mayor, Hilary James and Andy Baum - Slim Panatella and the Mellow Virginians
DYEAR=1900
DGENRE=
TTITLE0=Blues for Dixie
TTITLE1=Looking After Business
TTITLE2=Heat of the Moment
TTITLE3=Lime Rock
TTITLE4=Sweet Lorraine
TTITLE5=Cow-Cow Boogie
TTITLE6=Blue Skies
TTITLE7=Miles and Miles of Texas
TTITLE8=When you say you Love me
TTITLE9=Peach Pickin' Time
TTITLE10=Texas Hambone Blues
TTITLE11=Stay a Little Longer
TTITLE12=Fool About a Cigarette
TTITLE13=Dill Pickle Rag
EXTD=
EXTT0=
EXTT1=
EXTT2=
EXTT3=
EXTT4=
EXTT5=
EXTT6=
EXTT7=
EXTT8=
EXTT9=
EXTT10=
EXTT11=
EXTT12=
EXTT13=
PLAYORDER=
